# xmcd
#
# Track frame offsets:
#	150
#	14562
#	29615
#	47217
#	62967
#	79550
#	93872
#	107715
#	117237
#	130347
#	143040
#	155815
#	173352
#	189942
#
# Disc length: 2737 seconds
#
# Revision: 0
# Processed by: cddbd v1.4PL0 Copyright (c) Steve Scherf et al.
# Submitted via: dBpowerAMP V4.0
#
DISCID=b80aaf0e
DTITLE=Various Artist - Rodeo Paradoxx Music
DYEAR=1996
DGENRE=Country
TTITLE0=Bellamy Brothers/Get a Little Crazy
TTITLE1=Joe Nichols/Independent Girl
TTITLE2=Western Flyer/Western Flyer 
TTITLE3=Dana Barron/Piece of My Heart
TTITLE4=Al Anderson/Get Gone
TTITLE5=Colin Beach/Chattahoochie
TTITLE6=Doug Wayne/Stranger Than Fiction
TTITLE7=Larry Lowman/Big One
TTITLE8=Paulette Carlson/I've Got Your Number
TTITLE9=Craig Nesbitt/My Next Broken Heart
TTITLE10=Don Cox/I Never Met a Woman That I Didn't Like
TTITLE11=David Lee/I Don't Even Know Your Name
TTITLE12=Sweethearts/When The Morning Comes
TTITLE13=Dany Lockwood/Fast As You
EXTD=
EXTT0=
EXTT1=
EXTT2=
EXTT3=
EXTT4=
EXTT5=
EXTT6=
EXTT7=
EXTT8=
EXTT9=
EXTT10=
EXTT11=
EXTT12=
EXTT13=
PLAYORDER=
